<svg xmlns="http://www.w3.org/2000/svg" viewBox="0 0 250 72.25">
    <defs>
        <style>.cls-1{fill:#ea1d28;}</style>
    </defs>
    <title>Elmark Automatyka</title>
    <g fill="#ffffff">
        <path class="cls-1"
              d="M41,5.56c-4,3.06-7.46,5.66-7.57,5.77s-.08.2,12.14.2c9.85,0,12.33,0,12.27-.13C57.63,11.11,48.46,0,48.4,0S45,2.5,41,5.56Z"/>
        <path
            d="M53.49,1.24c-.16.16-.53.47-.79.69s-.46.43-.44.5,1.82,2.34,4,5.07l4,5H39.16l-1.49,1a18.76,18.76,0,0,0-1.51,1.13c0,.06,5.3.1,14.44.1,8,0,14.48,0,14.48-.07a1.15,1.15,0,0,0-.25-.33C64.54,14,54.39,1.61,54.11,1.21a1,1,0,0,0-.26-.28A1.69,1.69,0,0,0,53.49,1.24Z"/>
        <path
            d="M121.4,14.9c0,.05-1.31,4.28-2.85,9.41s-3.32,11.05-4,13.16-1.14,3.86-1.11,3.89,5.12.05,11.31.05c10.64,0,11.27,0,11.35-.18s1.55-5.08,3.33-11.06c3.11-10.46,3.23-10.86,3.26-10.2,0,.37-.2,5.32-.47,11s-.48,10.33-.46,10.36,6.46.11,6.59,0,1.55-2.54,3.3-5.54c7.76-13.28,9.35-16,9.4-16s-1.45,4.85-3.27,10.73-3.27,10.73-3.25,10.78a50.18,50.18,0,0,0,6.46-.05,29,29,0,0,0,1.1-3.27c.52-1.73,1.51-5,2.21-7.37C168.39,17.21,169,15.1,169,15s-2.54-.09-5.74-.09h-5.75l-4.68,8.81c-2.57,4.84-4.68,8.81-4.69,8.81s.81-14.13,1-17l0-.64-5.82,0-5.82,0-3.2,10.51L131.16,36l-4.31,0-4.31,0,.06-.23c0-.13,1.44-4.82,3.14-10.44s3.1-10.27,3.12-10.35-.44-.15-3.7-.19C123.12,14.83,121.42,14.86,121.4,14.9Z"/>
        <path
            d="M179.78,15.27c-.6.83-18.12,25.87-18.15,26s1.65.08,3.71.08h3.74l1.39-2.17c.76-1.21,1.51-2.36,1.68-2.58l.28-.39,5.23,0,5.22,0,.11,2.37c.07,1.3.12,2.45.13,2.54s.28.19,4.13.19h4.13l-.06-.49c-.05-.43-.44-4.82-1.8-20.26-.23-2.55-.43-4.88-.47-5.18l-.05-.54h-8.9Zm2.87,10.39,0,5.23h-3.39c-1.85,0-3.38,0-3.38,0s5.67-9.21,6.34-10.26c.18-.27.31-.4.32-.31S182.63,22.79,182.66,25.66Z"/>
        <path
            d="M200,15c-.1.35-4.63,15.2-6.3,20.67-.93,3-1.69,5.55-1.69,5.58s1.71.05,3.8.05h3.8l0-.24c0-.12.67-2.38,1.43-5l1.38-4.77,2.11,0c1.94,0,2.15.06,2.65.28.79.35,1,.75,1,1.81a10.84,10.84,0,0,1-.25,1.85,36.7,36.7,0,0,0-.89,5L207,41.3h8.07v-.44c0-.87.41-4.65.62-5.72.67-3.46.42-5.16-.87-6a4.23,4.23,0,0,0-2.09-.74c-.35,0-.62-.1-.59-.14a.38.38,0,0,1,.29-.09,13,13,0,0,0,2.64-.73,12.3,12.3,0,0,0,2.53-1.45c2.12-1.76,3.45-4.56,3.13-6.59-.4-2.61-2.68-4-7.06-4.4-.68-.06-4-.11-7.44-.11C200.44,14.82,200,14.83,200,15Zm11,5.43c1.28.45,1.66,1.43,1.18,3a3.58,3.58,0,0,1-2.67,2.27,11.48,11.48,0,0,1-3.09.25c-2,0-2.4,0-2.36-.08s.46-1.39,1-2.91l.92-2.77,2.27,0A9.33,9.33,0,0,1,211,20.43Z"/>
        <path
            d="M225.64,14.95c-.09.24-7.88,26.25-7.88,26.3s1.66.05,3.69.05h3.68l2.06-6.76c1.12-3.71,2.08-6.77,2.11-6.79s1,3,2.21,6.76l2.16,6.79h9.23l-.07-.24c0-.12-1.27-3.44-2.72-7.38l-2.65-7.15,6.26-5.76C247.18,17.61,250,15,250,14.92s-8.62-.12-8.67,0-10,9.83-11.11,10.82a2.35,2.35,0,0,1-.48.4s.71-2.52,1.62-5.56S233,15,233,14.92a35.55,35.55,0,0,0-3.66-.09C226.51,14.82,225.67,14.86,225.64,14.95Z"/>
        <path
            d="M98.92,15.05,95,28.11c-2.13,7.11-3.89,13-3.93,13.11s.45.18,10,.15l10.08,0,.75-2.47c.41-1.36.75-2.55.75-2.66s-.37-.18-6.29-.18c-5,0-6.28,0-6.24-.13s.39-1.27.8-2.67l.76-2.55h11.66l.75-2.49c.41-1.37.76-2.55.79-2.63s-1.05-.13-5.79-.13c-5.51,0-5.83,0-5.78-.19s.34-1.1.68-2.24.68-2.21.73-2.4l.11-.33h12.64l.26-.86c.56-1.83,1.3-4.38,1.3-4.44s-4.52-.06-10-.06C101.06,14.93,99,15,98.92,15.05Z"/>
        <path class="cls-1"
              d="M22.48,19.43l-12.26,9C4.61,32.58,0,36,0,36s3.22,4,7.19,8.78,7.28,8.8,7.37,8.9.16.18.2.15S24.6,18.1,24.57,18A18.84,18.84,0,0,0,22.48,19.43Z"/>
        <path class="cls-1"
              d="M62.83,18.71c-.12.44-1.65,6.25-3.41,12.91S55.69,45.75,55,48.23s-1.2,4.57-1.2,4.67a31.36,31.36,0,0,0,3.33-2.36l8.57-6.46,8.6-6.48,3.38-2.53s-1.4-1.7-3.14-3.74l-7.29-8.55c-2.27-2.67-4.15-4.85-4.18-4.85A3.17,3.17,0,0,0,62.83,18.71Z"/>
        <path
            d="M68.1,20c-.41,1.38-.42,1.43-.25,1.63s2.66,3.1,5.68,6.64S79.1,34.86,79.21,35l.2.22-9.33,7.13c-5.14,3.93-9.42,7.18-9.51,7.23a50.68,50.68,0,0,0-2.08,5.33c0,.06,5.56-4,12.36-9.15s12.43-9.3,12.53-9.35-.23-.57-2.05-2.71l-7.43-8.8c-2.87-3.4-5.25-6.19-5.3-6.21A6,6,0,0,0,68.1,20Z"/>
        <path
            d="M29.79,36.11c-2.49,9.1-4.54,16.61-4.56,16.69s1.77.14,12.67.14H50.61l.79-3c.43-1.64.79-3,.79-3s-3.69-.07-8.19-.07-8.19,0-8.19-.08.48-1.91,1.06-4.14l1.05-4.07,7.23,0,7.23,0,.11-.44c.07-.24.41-1.54.78-2.87S54,32.68,54,32.6s-.87-.15-7.22-.15H39.51l.06-.24.87-3.37.81-3.14,8.08-.05,8.08-.05.79-2.94c.43-1.62.79-3,.8-3s-5.55-.07-12.33-.07H34.33Z"/>
        <path
            d="M28.69,20.26c0,.1-4.12,3.67-4.35,3.8a1.36,1.36,0,0,0-.26.6c-.13.55-5.77,21.28-6.55,24.1l-.45,1.63L18.28,52l1.24,1.6s.06,0,.09,0,.78-2.63,1.66-5.76,2.95-10.6,4.62-16.59,3-10.91,3-11S28.73,20.17,28.69,20.26Z"/>
        <path
            d="M103.71,57.23c-2.52,3.66-4.59,6.7-4.62,6.74a5.78,5.78,0,0,0,1.46.12,7,7,0,0,0,1.5-.05,16.92,16.92,0,0,1,.95-1.47l.95-1.38h5.21v1.28a11,11,0,0,0,.06,1.44c.05.14.28.16,1.43.16H112l0-.79c-.06-1.1-.45-11.62-.45-12.22v-.48H108.3Zm5.35-.14v1.63h-3.72l.39-.55,1.78-2.46,1.39-1.92.07.84C109,55.09,109,56.2,109.06,57.08Z"/>
        <path
            d="M188.51,57.19c-1.22,3.65-2.23,6.69-2.26,6.75s.28.13,1.35.13H189l.48-1.47.48-1.46.88-.7c.63-.49.91-.66.95-.57s.23,1.05.42,2.16l.34,2H194c1.08,0,1.4,0,1.37-.13-.09-.26-1.3-6.07-1.27-6.1.61-.47,4.09-3.32,4.2-3.41s-.12-.14-1.65-.14h-1.8l-1.74,1.49c-1,.82-1.75,1.47-1.77,1.45s.45-1.49,1-3.27,1.08-3.28,1.08-3.32a5.44,5.44,0,0,0-1.37-.08h-1.36Z"/>
        <path
            d="M130.64,51.82l-1.65.93-.25.74-.26.74-.64,0-.64,0-.31.95c-.18.53-.32,1-.32,1a1.34,1.34,0,0,0,.61.07h.61l-.93,2.8c-1.07,3.23-1.14,3.72-.65,4.37s1,.79,2.28.79a4.65,4.65,0,0,0,1.24-.11,2.17,2.17,0,0,0,.48-1c.16-.46.32-.91.34-1s-.16-.13-.74-.15-.81-.07-.9-.21.09-.78.77-2.83l.88-2.66.82,0,.81,0,.29-.9.34-1c0-.09-.14-.12-.74-.12-.77,0-.78,0-.71-.24s.29-.87.56-1.65a7.12,7.12,0,0,0,.41-1.46A16.36,16.36,0,0,0,130.64,51.82Z"/>
        <path
            d="M176.8,51l-1.57.88a14.14,14.14,0,0,1-1.43.75,3,3,0,0,0-.34.79l-.27.8-.66.05-.66.05-.29.93c-.16.5-.3,1-.3,1s.28.08.61.08h.61l-.88,2.6c-.47,1.43-.92,2.85-1,3.14a1.67,1.67,0,0,0,1.09,2.05,7,7,0,0,0,2.59.1c.18-.05.31-.31.58-1.09l.35-1-.76,0c-.6,0-.79-.07-.89-.21s.08-.76.77-2.83l.88-2.66.82,0,.82,0,.29-.9.34-1c0-.09-.14-.12-.73-.12a2,2,0,0,1-.78-.08s.24-.77.52-1.62A16.09,16.09,0,0,0,177,51S176.92,50.94,176.8,51Z"/>
        <path
            d="M137.45,54.09a6.22,6.22,0,0,0-5.21,4.9c-.73,2.87.48,4.92,3.13,5.27a6.32,6.32,0,0,0,2.92-.31,6.92,6.92,0,0,0,3.91-4.25c.95-3-.25-5.27-3-5.62A4.56,4.56,0,0,0,137.45,54.09Zm1.49,2.28c.83.43,1,1.2.61,2.68a5.69,5.69,0,0,1-1.35,2.37,2.35,2.35,0,0,1-2.54.52,1.83,1.83,0,0,1-.83-1.5A6.27,6.27,0,0,1,136,57.27a3.19,3.19,0,0,1,2.13-1.12A2,2,0,0,1,138.94,56.36Z"/>
        <path
            d="M150.46,54.08a5.22,5.22,0,0,0-1.93.87,1.07,1.07,0,0,1-.39.23,1.33,1.33,0,0,1,.11-.45l.15-.43h-2.65l-1.61,4.82c-.89,2.65-1.61,4.84-1.61,4.89a6.5,6.5,0,0,0,1.37.07h1.36l1-3a15.9,15.9,0,0,1,1.43-3.63,2.36,2.36,0,0,1,1.26-1.1c.64-.32,1-.32,1.34,0s.36.37-.78,3.8c-.5,1.56-1,3.09-1.12,3.42l-.19.6,1.4,0L151,64l.84-2.52c1.29-3.86,1.72-4.64,2.89-5.21.82-.4,1.58-.22,1.59.39,0,.13-2.06,6.53-2.34,7.26,0,.1.23.13,1.34.13h1.4L158,60.43c1.08-3.22,1.22-3.71,1.23-4.35a1.67,1.67,0,0,0-.21-1,1.12,1.12,0,0,1-.19-.37c0-.12-1-.59-1.41-.65a4.44,4.44,0,0,0-2.34.45,5.48,5.48,0,0,0-1.6,1.08c0,.06-.08,0-.08-.09a1.88,1.88,0,0,0-1-1.18A3.37,3.37,0,0,0,150.46,54.08Z"/>
        <path
            d="M165.11,54.08a4.94,4.94,0,0,0-3.65,2.38l-.27.48.9.06c.5,0,1.1.09,1.34.13.41.05.44,0,.65-.31a1.76,1.76,0,0,1,1.36-.75c.56-.07,1.18.16,1.31.49a1.52,1.52,0,0,1-.26,1.17,4.38,4.38,0,0,1-1.21.24,14.4,14.4,0,0,0-3.63.67,3.25,3.25,0,0,0-2,2.95,2.11,2.11,0,0,0,.59,1.93,2.3,2.3,0,0,0,1.92.78,4.08,4.08,0,0,0,2.31-.75,2.87,2.87,0,0,1,.46-.31,1.29,1.29,0,0,1,.11.41l.07.41h2.64l0-1a10.09,10.09,0,0,1,.84-3.37c.9-2.65,1-3.46.74-4.09A2.84,2.84,0,0,0,168,54.29,7.37,7.37,0,0,0,165.11,54.08Zm.62,6.12A2.5,2.5,0,0,1,164,62.06c-1,.33-1.67,0-1.67-.71,0-.92.64-1.27,3-1.64C166,59.61,165.95,59.59,165.73,60.19Z"/>
        <path
            d="M202.56,54.09a4.89,4.89,0,0,0-2.79,1.29,6,6,0,0,0-1.07,1.48,2.14,2.14,0,0,0,.8.14l1.32.12c.52.06.53.05.74-.3a1.54,1.54,0,0,1,1.47-.73c.67,0,1.1.19,1.2.54a1.41,1.41,0,0,1-.36,1.14,16.05,16.05,0,0,1-2,.31,7.39,7.39,0,0,0-3,.71c-2.1,1.09-2.41,4.19-.53,5.22a3.73,3.73,0,0,0,3.83-.65l.31-.26,0,.47,0,.48h2.76l-.06-.52c-.08-.73.1-1.52.91-3.89s1-3.13.81-3.71a2.7,2.7,0,0,0-2.5-1.87A5,5,0,0,0,202.56,54.09Zm.77,5.65a5.83,5.83,0,0,1-.69,1.52,2.41,2.41,0,0,1-2.39.86A1,1,0,0,1,200,60.6a3.7,3.7,0,0,1,2-.75l.93-.15C203.23,59.63,203.33,59.64,203.33,59.73Z"/>
        <path
            d="M115.56,57.8c-1.09,3.28-1.18,3.6-1.18,4.33a1.58,1.58,0,0,0,.31,1.23,2.06,2.06,0,0,0,1.49.92,5,5,0,0,0,3.57-1,2.34,2.34,0,0,1,.44-.3s-.07.24-.15.47a3.46,3.46,0,0,0-.15.54,4.93,4.93,0,0,0,1.31.06l1.3,0,1.63-4.87,1.62-4.86h-2.81l-1,2.91c-1.05,3.15-1.39,3.82-2.26,4.48a2.92,2.92,0,0,1-1.8.61.92.92,0,0,1-.69-.75c0-.13.52-1.78,1.13-3.68s1.13-3.46,1.13-3.5a8.07,8.07,0,0,0-1.37-.06h-1.36Z"/>
        <path
            d="M177.9,54.66c0,.22.1,2.41.24,4.87l.23,4.48-.3.45c-.71,1.05-1.23,1.33-2.29,1.22l-.54-.05-.23,1c-.11.56-.22,1-.22,1.06a5.94,5.94,0,0,0,1.55.33,3.59,3.59,0,0,0,2.66-.86c.12-.11.23-.19.23-.15s.93-1.14,4.61-6.49c2.15-3.12,4-5.79,4.1-6l.18-.28H185.2l-1.94,2.93c-1.06,1.61-2.07,3.18-2.25,3.51l-.32.6V60.09c0-.67,0-2.26,0-3.52l0-2.29h-2.78Z"/>
        <path class="cls-1"
              d="M18.92,57.65c0,.05,2.3,2.91,5.11,6.37l5.31,6.52.19.25,8.61-6.52c4.73-3.59,8.6-6.56,8.6-6.6s-6.25-.08-13.91-.08S18.92,57.61,18.92,57.65Z"/>
        <path
            d="M39.22,65.06c-3.26,2.45-6,4.48-6,4.5A7,7,0,0,0,34.13,71c.61.8,1.07,1.33,1.15,1.3s2.28-1.66,11.86-9c1.78-1.36,3.26-2.52,3.29-2.6s-.58-.12-2.63-.11H45.14Z"/>
    </g>
</svg>
