<svg width="2058" height="342" viewBox="0 0 2058 342" fill="none" xmlns="http://www.w3.org/2000/svg">
<g clip-path="url(#clip0_4_6827)">
<path d="M522.518 218.443L535.811 221.994V337.683H386.446V324.827C400.627 324.827 403.291 300.892 403.291 182.552C403.291 64.213 400.627 40.2775 386.446 40.2775V27.4219H530.947V138.671L517.203 142.222L483.513 44.7044H448.936V165.27C467.556 165.27 481.287 151.976 481.287 114.297H496.356V233.975H481.287C481.287 196.296 467.544 182.565 448.936 182.565V320.413H488.378L522.505 218.468L522.518 218.443Z" fill="black"/>
<path d="M558.033 27.4121H711.838V142.212L698.545 145.764L669.294 44.7072H657.764V182.555C657.764 292.478 660.428 324.83 678.148 324.83V337.685H591.273V324.83C609.443 324.83 612.107 292.478 612.107 182.555V44.6947H600.577L571.326 145.751L558.033 142.2V27.4121Z" fill="black"/>
<path d="M906.425 40.2677C892.243 40.2677 889.58 64.2032 889.58 181.655C889.58 299.106 892.243 324.817 906.425 324.817V337.673H828.853V324.817C843.034 324.817 845.698 302.207 845.698 183.43H790.299C790.299 302.22 792.962 324.817 806.693 324.817V337.673H729.572V324.817C744.204 324.817 746.417 300.882 746.417 182.542C746.417 64.2032 744.204 40.2677 729.572 40.2677V27.4121H806.693V40.2677C792.95 40.2677 790.299 63.3153 790.299 164.372H845.698C845.698 63.3153 843.034 40.2677 828.853 40.2677V27.4121H906.425V40.2677Z" fill="black"/>
<path d="M1108.54 27.4109H1169.7V39.8164C1158.62 42.9177 1151.08 77.4954 1099.23 338.109H1075.73L1042.04 172.787L1009.24 338.109H985.307C932.121 75.7071 925.469 42.4675 914.839 39.8164V27.4109H987.533V39.8164C971.138 44.6935 975.128 70.4048 1010.58 241.042L1033.63 133.332C1017.23 55.7609 1011.91 41.5796 1004.38 39.8039V27.3984H1077.96V39.8039C1061.12 44.681 1065.55 72.1555 1101.01 241.48C1129.37 100.093 1132.92 45.1312 1108.55 39.8039V27.3984L1108.54 27.4109Z" fill="black"/>
<path d="M1234.95 26.9764C1293.46 297.357 1300.1 321.293 1309.86 325.269V337.675H1232.29V324.819C1243.82 320.83 1245.58 303.985 1234.95 245.034H1182.2C1175.11 297.332 1179.54 320.38 1196.38 324.819V337.675H1133.01V324.819C1143.65 320.392 1149.85 292.468 1208.8 26.9639H1234.95V26.9764ZM1231.4 227.314C1225.63 198.952 1217.66 162.161 1207.03 115.177C1196.83 161.273 1189.74 198.064 1184.87 227.314H1231.41H1231.4Z" fill="black"/>
<path d="M1495.97 280.948C1495.08 323.504 1479.57 341.224 1456.52 341.224C1435.69 341.224 1420.18 331.032 1413.97 279.61C1404.21 200.275 1397.57 182.092 1385.61 182.092H1380.73V204.702C1380.73 300.882 1382.94 324.817 1397.12 324.817V337.673H1318.23V324.817C1332.41 324.817 1335.07 301.332 1335.07 182.542C1335.07 63.753 1332.41 40.2677 1318.23 40.2677V27.4121H1394.46C1452.09 27.4121 1472.03 58.4382 1472.03 101.432C1472.03 139.999 1455.19 171.025 1410.87 175.452C1430.81 186.094 1444.56 213.569 1458.74 266.754C1465.39 301.332 1469.38 305.321 1473.37 305.321C1477.36 305.321 1480.46 301.77 1481.79 278.284L1495.97 280.948ZM1380.73 164.822H1390.48C1413.09 164.822 1420.62 143.1 1420.62 104.096C1420.62 67.3046 1412.64 44.257 1390.48 44.257H1380.73V164.822Z" fill="black"/>
<path d="M1647.11 262.325C1647.11 312.86 1619.62 341.66 1579.29 341.66C1552.69 341.66 1543.84 330.13 1534.52 330.13C1529.21 330.13 1524.33 332.794 1522.55 340.322L1510.58 336.77V225.071L1523.88 221.52C1533.18 276.481 1551.37 325.24 1577.95 325.24C1594.8 325.24 1603.66 311.059 1603.66 289.787C1603.66 202.474 1513.25 187.843 1513.25 95.6523C1513.25 47.7814 1541.17 23.4082 1574.86 23.4082C1596.59 23.4082 1606.33 34.0504 1614.31 34.0504C1619.62 34.0504 1623.17 31.3867 1625.39 24.7463L1637.35 28.2978V127.579L1624.06 131.13C1614.31 81.9338 1598.8 39.8279 1576.19 39.8279C1563.33 39.8279 1554.03 48.2441 1554.03 69.5284C1554.03 148.425 1647.11 170.147 1647.11 262.338V262.325Z" fill="black"/>
<path d="M1757.03 26.9764C1815.55 297.357 1822.19 321.293 1831.94 325.269V337.675H1754.37V324.819C1765.9 320.83 1767.66 303.985 1757.03 245.034H1704.29C1697.19 297.332 1701.62 320.38 1718.47 324.819V337.675H1655.09V324.819C1665.73 320.392 1671.93 292.468 1730.88 26.9639H1757.03V26.9764ZM1753.48 227.314C1747.72 198.952 1739.74 162.161 1729.11 115.177C1718.92 161.273 1711.83 198.064 1706.95 227.314H1753.49H1753.48Z" fill="black"/>
<path d="M1996.45 27.4109H2057.61V39.8164C2046.53 42.9177 2038.99 77.4954 1987.13 338.109H1963.64L1929.95 172.787L1897.15 338.109H1873.22C1820.03 75.7071 1813.38 42.4675 1802.74 39.8164V27.4109H1875.43V39.8164C1859.04 44.6935 1863.03 70.4048 1898.48 241.042L1921.53 133.332C1905.13 55.7609 1899.8 41.5796 1892.28 39.8039V27.3984H1965.86V39.8039C1949.01 44.681 1953.45 72.1555 1988.91 241.48C2017.27 100.093 2020.82 45.1312 1996.43 39.8039V27.3984L1996.45 27.4109Z" fill="black"/>
<path d="M46.4369 167.037L46.4119 167.062L52.0519 153.156C52.6897 151.631 52.0269 149.855 50.5262 149.18C42.0225 145.115 16.0361 130.884 16.0361 108.762V51.8746C16.0361 50.1488 17.4618 48.7357 19.2 48.7357H29.7671V72.8963C29.7671 74.647 31.1928 76.0351 32.9435 76.0351H47.9751C49.7384 76.0351 51.139 74.6095 51.139 72.8963V48.7357H213.698C215.461 48.7357 216.874 47.3101 216.874 45.5968V30.6778C216.874 28.952 215.448 27.5389 213.698 27.5389H51.114V3.32833C51.114 1.57756 49.6884 0.189453 47.9501 0.189453H32.9185C31.1552 0.189453 29.7421 1.61508 29.7421 3.32833V27.4889H-2.20935C-3.97262 27.4889 -5.38574 28.9145 -5.38574 30.6278V108.749C-5.38574 144.09 31.1677 163.623 42.1976 168.726C43.8483 169.439 45.7491 168.676 46.4369 167V167.025V167.037ZM167.677 103.635C167.953 101.271 166.002 99.1452 163.588 99.1452H150.282C148.269 99.1452 146.681 100.646 146.268 102.572C144.592 110.388 137.402 115.09 130.649 115.09C128.148 115.09 124.596 114.427 121.757 111.138C118.581 107.536 116.88 101.546 116.78 93.8679C116.605 81.2874 108.727 69.6824 96.4588 66.4434C77.8632 61.5163 61.0683 75.3473 60.9933 93.0301C60.9933 93.0801 61.0433 93.1301 61.0933 93.1551C61.0433 93.1801 60.9933 93.2302 60.9933 93.2802C61.0683 107.186 71.4354 118.641 84.8662 120.592V120.567C87.0047 120.842 88.8805 119.192 88.8805 117.066V102.572C88.8805 101.071 87.9051 99.808 86.4794 99.3578C84.5661 98.7451 82.2151 97.1694 82.2151 93.1926C82.2901 93.1926 82.3151 93.1676 82.3151 93.0926C82.3902 89.2409 85.8667 86.1521 89.9059 86.7898C93.2074 87.3026 95.3958 90.4414 95.3958 93.7804C95.4959 106.724 99.0474 117.591 105.663 125.132C111.991 132.397 120.907 136.374 130.686 136.374L130.611 136.349C147.331 136.324 165.314 123.956 167.677 103.66V103.635ZM138.127 219.911L99.085 243.083C96.4713 244.634 93.1824 244.634 90.5812 243.083L51.4891 219.911C50.4012 219.273 49.2006 220.573 49.9385 221.586L92.8322 282.2C93.8076 283.601 95.8585 283.601 96.8465 282.2L139.678 221.586C140.416 220.573 139.215 219.273 138.127 219.911ZM140.29 207.718L96.959 135.724C95.9961 134.123 93.6826 134.123 92.7447 135.724L49.3632 207.718C48.6004 209.018 49.0131 210.657 50.3011 211.419L90.6188 235.255C93.2324 236.805 96.4838 236.805 99.0975 235.255L139.365 211.419C140.666 210.657 141.066 208.981 140.303 207.718H140.29ZM266.546 254.676C261.644 250.461 256.004 247.51 249.951 246.022C249.876 245.997 249.876 245.947 249.876 245.872C252.352 234.367 249.163 222.324 240.459 211.932C228.667 197.926 206.519 187.947 188.099 196.375C187.211 196.813 186.598 197.651 186.473 198.614L184.31 212.595C184.21 213.22 184.335 213.858 184.647 214.408C184.86 214.808 185.198 215.108 185.598 215.309C194.026 219.585 196.665 226.001 194.414 232.566C192.151 239.182 185.135 242.233 151.695 242.821C149.219 242.846 147.244 244.884 147.244 247.31V259.528C147.244 262.042 149.307 264.092 151.846 264.042C187.949 263.48 207.808 256.026 214.185 240.695C216.174 235.918 216.574 230.79 215.486 225.426C214.41 221.461 212.41 218.46 210.821 216.709C210.496 216.359 210.846 215.909 211.334 215.971C224.765 217.81 236.483 234.492 227.941 250.499C227.554 251.224 227.429 252.025 227.841 252.725L233.631 262.442C234.057 263.142 234.844 263.492 235.645 263.405C239.959 263.017 248.713 266.831 252.827 270.808C259.618 277.373 262.356 284.939 262.832 290.129C263.744 299.871 257.779 311.1 244.636 315.665C243.998 315.878 243.298 315.215 243.748 314.715C245.899 312.188 247.675 307.824 247.475 303.697C247 294.843 243.686 286.99 237.133 280.837C231.718 275.735 221.864 269.67 205.657 269.67C182.872 269.67 166.202 284.989 149.157 297.294C131.274 310.163 113.466 319.779 90.1435 319.779C77.7131 319.779 68.4466 316.078 61.8437 308.424C49.8759 294.593 48.1002 269.432 50.5637 249.211C50.8138 247.198 49.4132 245.359 47.3998 245.047L33.6813 243.033C31.6179 242.758 29.6671 244.184 29.417 246.247C27.2035 263.905 25.8904 299.52 45.6991 322.355C56.4413 334.773 71.4354 341.064 90.1811 341.064L90.006 340.989C120.232 340.989 142.654 328.108 161.55 314.452C177.144 303.21 189.925 290.892 205.519 290.892C221.113 290.892 226.628 299.083 226.628 306.098C226.628 307.649 226.241 314.902 218.837 316.053C217.612 316.228 216.724 317.253 216.724 318.466V334.973C216.724 336.349 217.874 337.462 219.238 337.462C275.537 336.624 284.041 307.611 284.041 290.191C284.041 281.825 279.389 265.568 266.583 254.651V254.676H266.546Z" fill="black"/>
</g>
<defs>
<clipPath id="clip0_4_6827">
<rect width="2057.61" height="341.675" fill="white"/>
</clipPath>
</defs>
</svg>
